<?xml version="1.0" encoding="UTF-8" standalone="no"?><!DOCTYPE svg PUBLIC "-//W3C//DTD SVG 1.1//EN" "http://www.w3.org/Graphics/SVG/1.1/DTD/svg11.dtd"><svg width="100%" height="100%" viewBox="0 0 64 64" version="1.1" xmlns="http://www.w3.org/2000/svg" xmlns:xlink="http://www.w3.org/1999/xlink" xml:space="preserve" xmlns:serif="http://www.serif.com/" style="fill-rule:evenodd;clip-rule:evenodd;stroke-linejoin:round;stroke-miterlimit:2;"><path d="M40.678,32l13.017,-13.016c1.597,-1.598 1.597,-4.187 0,-5.786l-2.893,-2.893c-1.597,-1.597 -4.187,-1.597 -5.786,0l-13.016,13.017l-13.016,-13.017c-1.598,-1.597 -4.187,-1.597 -5.786,0l-2.893,2.893c-1.597,1.597 -1.597,4.187 0,5.786l13.017,13.016l-13.017,13.016c-1.597,1.598 -1.597,4.187 0,5.786l2.893,2.893c1.597,1.597 4.188,1.597 5.786,0l13.016,-13.017l13.016,13.017c1.598,1.597 4.189,1.597 5.786,0l2.893,-2.893c1.597,-1.597 1.597,-4.187 0,-5.786l-13.017,-13.016Z" style="fill:url(#_Linear1);fill-rule:nonzero;"/><path d="M48.198,1.11l0.289,0.011l0.289,0.017l0.288,0.024l0.288,0.031l0.287,0.038l0.287,0.045l0.286,0.051l0.285,0.059l0.284,0.066l0.282,0.073l0.282,0.079l0.28,0.087l0.279,0.093l0.276,0.101l0.275,0.108l0.273,0.114l0.271,0.122l0.269,0.128l0.266,0.136l0.263,0.143l0.26,0.149l0.258,0.156l0.254,0.164l0.25,0.17l0.247,0.176l0.243,0.184l0.239,0.19l0.235,0.196l0.23,0.203l0.226,0.209l0.184,0.18l2.966,2.965l0.18,0.186l0.209,0.225l0.203,0.23l0.196,0.235l0.19,0.239l0.183,0.243l0.177,0.247l0.169,0.25l0.164,0.254l0.156,0.258l0.149,0.26l0.143,0.263l0.135,0.266l0.129,0.268l0.121,0.271l0.115,0.273l0.107,0.275l0.101,0.277l0.093,0.278l0.087,0.28l0.08,0.282l0.072,0.283l0.066,0.284l0.059,0.285l0.051,0.285l0.045,0.287l0.038,0.287l0.031,0.288l0.024,0.288l0.017,0.289l0.011,0.288l0.003,0.289l-0.003,0.289l-0.011,0.289l-0.017,0.288l-0.024,0.289l-0.031,0.288l-0.038,0.287l-0.045,0.287l-0.051,0.285l-0.059,0.285l-0.066,0.284l-0.072,0.283l-0.08,0.282l-0.087,0.28l-0.093,0.278l-0.101,0.277l-0.108,0.275l-0.114,0.273l-0.122,0.271l-0.128,0.268l-0.136,0.266l-0.143,0.264l-0.149,0.26l-0.156,0.257l-0.164,0.254l-0.17,0.251l-0.176,0.247l-0.184,0.243l-0.19,0.239l-0.196,0.235l-0.203,0.23l-0.209,0.225l-0.18,0.185l-7.395,7.395l7.397,7.396l0.18,0.186l0.209,0.225l0.203,0.231l0.196,0.234l0.19,0.239l0.183,0.243l0.177,0.247l0.169,0.251l0.164,0.254l0.156,0.257l0.149,0.26l0.143,0.263l0.135,0.266l0.129,0.269l0.121,0.27l0.115,0.273l0.107,0.275l0.101,0.277l0.093,0.279l0.087,0.28l0.08,0.281l0.072,0.283l0.066,0.284l0.059,0.285l0.051,0.285l0.045,0.287l0.038,0.287l0.031,0.288l0.024,0.289l0.017,0.288l0.011,0.289l0.003,0.289l-0.003,0.289l-0.011,0.288l-0.017,0.289l-0.024,0.288l-0.031,0.288l-0.038,0.287l-0.045,0.287l-0.051,0.286l-0.059,0.285l-0.066,0.283l-0.072,0.283l-0.08,0.282l-0.087,0.28l-0.093,0.278l-0.101,0.277l-0.108,0.275l-0.114,0.273l-0.122,0.271l-0.128,0.269l-0.136,0.266l-0.143,0.263l-0.149,0.26l-0.156,0.258l-0.164,0.254l-0.17,0.25l-0.176,0.247l-0.184,0.243l-0.19,0.239l-0.196,0.235l-0.203,0.23l-0.209,0.226l-0.179,0.184l-2.965,2.965l-0.185,0.179l-0.225,0.209l-0.23,0.203l-0.235,0.197l-0.239,0.19l-0.243,0.183l-0.247,0.177l-0.251,0.17l-0.254,0.163l-0.257,0.156l-0.261,0.15l-0.263,0.142l-0.266,0.136l-0.268,0.128l-0.271,0.122l-0.273,0.115l-0.275,0.107l-0.277,0.101l-0.279,0.093l-0.28,0.087l-0.281,0.08l-0.283,0.072l-0.284,0.066l-0.285,0.059l-0.286,0.051l-0.286,0.045l-0.288,0.038l-0.288,0.031l-0.288,0.024l-0.288,0.017l-0.289,0.011l-0.289,0.003l-0.289,-0.003l-0.288,-0.011l-0.289,-0.017l-0.288,-0.024l-0.288,-0.031l-0.287,-0.038l-0.287,-0.045l-0.286,-0.051l-0.285,-0.059l-0.283,-0.066l-0.283,-0.072l-0.282,-0.08l-0.28,-0.087l-0.279,-0.093l-0.277,-0.101l-0.274,-0.107l-0.273,-0.115l-0.271,-0.122l-0.269,-0.128l-0.266,-0.136l-0.263,-0.142l-0.261,-0.15l-0.257,-0.156l-0.254,-0.163l-0.251,-0.17l-0.246,-0.177l-0.244,-0.183l-0.239,-0.19l-0.234,-0.197l-0.231,-0.203l-0.225,-0.209l-0.185,-0.179l-7.395,-7.396l-7.395,7.395l-0.185,0.18l-0.225,0.209l-0.231,0.203l-0.234,0.197l-0.239,0.19l-0.244,0.183l-0.246,0.177l-0.251,0.17l-0.254,0.163l-0.257,0.156l-0.261,0.15l-0.263,0.142l-0.266,0.136l-0.269,0.128l-0.271,0.122l-0.273,0.115l-0.275,0.107l-0.276,0.101l-0.279,0.093l-0.28,0.087l-0.282,0.08l-0.283,0.072l-0.283,0.066l-0.285,0.059l-0.286,0.051l-0.287,0.045l-0.287,0.038l-0.288,0.031l-0.288,0.024l-0.289,0.017l-0.288,0.011l-0.289,0.003l-0.289,-0.003l-0.289,-0.011l-0.288,-0.017l-0.288,-0.024l-0.288,-0.031l-0.288,-0.038l-0.286,-0.045l-0.286,-0.051l-0.285,-0.059l-0.284,-0.066l-0.283,-0.072l-0.281,-0.08l-0.28,-0.087l-0.279,-0.093l-0.277,-0.101l-0.275,-0.107l-0.273,-0.115l-0.271,-0.122l-0.268,-0.128l-0.266,-0.136l-0.263,-0.142l-0.261,-0.15l-0.257,-0.156l-0.254,-0.163l-0.251,-0.17l-0.247,-0.177l-0.243,-0.183l-0.239,-0.19l-0.235,-0.197l-0.23,-0.203l-0.226,-0.209l-0.184,-0.18l-2.966,-2.965l-0.18,-0.186l-0.209,-0.225l-0.203,-0.23l-0.196,-0.235l-0.19,-0.239l-0.183,-0.243l-0.177,-0.247l-0.169,-0.25l-0.164,-0.254l-0.156,-0.258l-0.149,-0.26l-0.143,-0.263l-0.135,-0.266l-0.129,-0.268l-0.121,-0.271l-0.115,-0.273l-0.107,-0.275l-0.101,-0.277l-0.093,-0.278l-0.087,-0.28l-0.08,-0.282l-0.072,-0.283l-0.066,-0.284l-0.059,-0.285l-0.051,-0.285l-0.045,-0.287l-0.038,-0.287l-0.031,-0.288l-0.024,-0.288l-0.017,-0.289l-0.011,-0.288l-0.003,-0.289l0.003,-0.289l0.011,-0.289l0.017,-0.289l0.024,-0.288l0.031,-0.288l0.038,-0.287l0.045,-0.286l0.051,-0.286l0.059,-0.285l0.066,-0.284l0.073,-0.283l0.079,-0.282l0.087,-0.28l0.093,-0.278l0.101,-0.277l0.108,-0.275l0.114,-0.273l0.122,-0.271l0.128,-0.269l0.136,-0.265l0.143,-0.264l0.149,-0.26l0.156,-0.257l0.164,-0.254l0.17,-0.251l0.176,-0.247l0.184,-0.243l0.19,-0.239l0.196,-0.235l0.203,-0.23l0.209,-0.225l0.18,-0.185l7.395,-7.395l-7.396,-7.396l-0.181,-0.186l-0.209,-0.225l-0.203,-0.231l-0.196,-0.234l-0.19,-0.239l-0.183,-0.243l-0.177,-0.247l-0.169,-0.251l-0.164,-0.254l-0.156,-0.257l-0.149,-0.26l-0.143,-0.263l-0.135,-0.266l-0.129,-0.269l-0.121,-0.27l-0.115,-0.273l-0.107,-0.275l-0.101,-0.277l-0.093,-0.279l-0.087,-0.28l-0.08,-0.281l-0.072,-0.283l-0.066,-0.284l-0.059,-0.285l-0.051,-0.286l-0.045,-0.286l-0.038,-0.287l-0.031,-0.288l-0.024,-0.288l-0.017,-0.289l-0.011,-0.289l-0.003,-0.289l0.003,-0.288l0.011,-0.289l0.017,-0.289l0.024,-0.288l0.031,-0.288l0.038,-0.287l0.045,-0.287l0.051,-0.286l0.059,-0.285l0.066,-0.284l0.073,-0.282l0.079,-0.282l0.087,-0.28l0.093,-0.279l0.101,-0.276l0.108,-0.275l0.114,-0.273l0.122,-0.271l0.128,-0.269l0.136,-0.266l0.143,-0.263l0.149,-0.26l0.156,-0.258l0.164,-0.254l0.17,-0.25l0.176,-0.247l0.184,-0.243l0.19,-0.239l0.196,-0.235l0.203,-0.23l0.209,-0.226l0.18,-0.184l2.965,-2.966l0.186,-0.18l0.225,-0.209l0.23,-0.203l0.235,-0.196l0.239,-0.19l0.243,-0.183l0.247,-0.177l0.25,-0.169l0.254,-0.164l0.258,-0.156l0.26,-0.149l0.263,-0.143l0.266,-0.135l0.268,-0.129l0.271,-0.121l0.273,-0.115l0.275,-0.107l0.277,-0.101l0.278,-0.093l0.28,-0.087l0.282,-0.08l0.283,-0.072l0.284,-0.066l0.285,-0.059l0.285,-0.051l0.287,-0.045l0.287,-0.038l0.288,-0.031l0.288,-0.024l0.289,-0.017l0.288,-0.011l0.289,-0.003l0.289,0.003l0.289,0.011l0.289,0.017l0.288,0.024l0.288,0.031l0.287,0.038l0.286,0.045l0.286,0.051l0.285,0.059l0.284,0.066l0.283,0.073l0.282,0.079l0.28,0.087l0.278,0.093l0.277,0.101l0.275,0.108l0.273,0.114l0.271,0.122l0.269,0.128l0.265,0.136l0.264,0.143l0.26,0.149l0.257,0.156l0.254,0.164l0.251,0.17l0.247,0.176l0.243,0.184l0.239,0.19l0.235,0.196l0.23,0.203l0.225,0.209l0.185,0.18l7.395,7.395l7.396,-7.397l0.186,-0.18l0.225,-0.209l0.231,-0.203l0.234,-0.196l0.239,-0.19l0.243,-0.183l0.247,-0.177l0.251,-0.169l0.254,-0.164l0.257,-0.156l0.26,-0.149l0.263,-0.143l0.266,-0.135l0.269,-0.129l0.27,-0.121l0.273,-0.115l0.275,-0.107l0.277,-0.101l0.279,-0.093l0.28,-0.087l0.281,-0.08l0.283,-0.072l0.284,-0.066l0.285,-0.059l0.286,-0.051l0.286,-0.045l0.287,-0.038l0.288,-0.031l0.288,-0.024l0.289,-0.017l0.289,-0.011l0.289,-0.003l0.288,0.003Zm-32.205,7.998l-0.098,0.004l-0.098,0.006l-0.098,0.008l-0.097,0.011l-0.098,0.012l-0.097,0.016l-0.097,0.017l-0.096,0.02l-0.097,0.022l-0.095,0.025l-0.095,0.027l-0.095,0.029l-0.094,0.032l-0.093,0.034l-0.093,0.036l-0.092,0.038l-0.091,0.041l-0.091,0.044l-0.089,0.045l-0.089,0.048l-0.088,0.051l-0.086,0.052l-0.086,0.055l-0.084,0.057l-0.084,0.06l-0.082,0.062l-0.081,0.064l-0.08,0.067l-0.078,0.069l-0.077,0.072l-0.076,0.073l-2.893,2.893l-0.073,0.076l-0.072,0.077l-0.069,0.078l-0.067,0.08l-0.064,0.081l-0.062,0.082l-0.06,0.083l-0.057,0.085l-0.055,0.085l-0.052,0.087l-0.051,0.088l-0.048,0.088l-0.045,0.09l-0.044,0.09l-0.041,0.091l-0.038,0.092l-0.036,0.093l-0.034,0.093l-0.032,0.094l-0.029,0.095l-0.027,0.095l-0.025,0.096l-0.022,0.096l-0.02,0.096l-0.017,0.097l-0.016,0.097l-0.012,0.098l-0.011,0.097l-0.008,0.098l-0.006,0.098l-0.004,0.098l-0.001,0.098l0.001,0.099l0.004,0.098l0.006,0.098l0.008,0.098l0.011,0.097l0.012,0.098l0.016,0.097l0.017,0.097l0.02,0.096l0.022,0.096l0.025,0.096l0.027,0.095l0.029,0.095l0.032,0.094l0.034,0.093l0.036,0.093l0.038,0.092l0.041,0.091l0.044,0.09l0.045,0.09l0.048,0.089l0.051,0.087l0.052,0.087l0.055,0.086l0.057,0.084l0.06,0.084l0.062,0.082l0.064,0.081l0.067,0.08l0.069,0.078l0.072,0.077l0.073,0.076l13.017,13.016l-13.017,13.016l-0.073,0.076l-0.072,0.077l-0.069,0.078l-0.067,0.08l-0.064,0.081l-0.062,0.082l-0.06,0.083l-0.057,0.085l-0.055,0.086l-0.052,0.086l-0.051,0.088l-0.048,0.088l-0.045,0.09l-0.044,0.09l-0.041,0.091l-0.038,0.092l-0.036,0.093l-0.034,0.093l-0.032,0.094l-0.029,0.095l-0.027,0.095l-0.025,0.096l-0.022,0.096l-0.02,0.096l-0.017,0.097l-0.016,0.097l-0.012,0.098l-0.011,0.098l-0.008,0.097l-0.006,0.098l-0.004,0.098l-0.001,0.099l0.001,0.098l0.004,0.098l0.006,0.098l0.008,0.098l0.011,0.097l0.012,0.098l0.016,0.097l0.017,0.097l0.02,0.096l0.022,0.097l0.025,0.095l0.027,0.095l0.029,0.095l0.032,0.094l0.034,0.093l0.036,0.093l0.038,0.092l0.041,0.091l0.044,0.091l0.045,0.089l0.048,0.089l0.051,0.088l0.052,0.086l0.055,0.086l0.057,0.084l0.06,0.084l0.062,0.082l0.064,0.081l0.067,0.08l0.069,0.078l0.072,0.077l0.073,0.076l2.893,2.893l0.076,0.073l0.077,0.072l0.078,0.069l0.08,0.067l0.081,0.064l0.082,0.062l0.083,0.06l0.085,0.057l0.085,0.055l0.087,0.052l0.088,0.051l0.088,0.048l0.09,0.045l0.09,0.044l0.091,0.041l0.092,0.038l0.093,0.036l0.093,0.034l0.094,0.032l0.095,0.029l0.095,0.027l0.096,0.025l0.096,0.022l0.096,0.02l0.097,0.017l0.098,0.016l0.097,0.012l0.098,0.011l0.098,0.008l0.098,0.006l0.098,0.004l0.098,0.001l0.098,-0.001l0.098,-0.004l0.098,-0.006l0.098,-0.008l0.098,-0.011l0.097,-0.012l0.097,-0.016l0.097,-0.017l0.097,-0.02l0.096,-0.022l0.096,-0.025l0.095,-0.027l0.094,-0.029l0.094,-0.032l0.094,-0.034l0.092,-0.036l0.092,-0.038l0.092,-0.041l0.09,-0.044l0.089,-0.045l0.089,-0.048l0.088,-0.051l0.086,-0.052l0.086,-0.055l0.085,-0.057l0.083,-0.06l0.082,-0.062l0.081,-0.064l0.08,-0.067l0.078,-0.069l0.077,-0.072l0.076,-0.073l13.016,-13.017l13.016,13.017l0.076,0.073l0.077,0.072l0.078,0.069l0.08,0.067l0.081,0.064l0.082,0.062l0.083,0.06l0.085,0.057l0.086,0.055l0.086,0.052l0.088,0.051l0.089,0.048l0.089,0.045l0.09,0.044l0.092,0.041l0.092,0.038l0.092,0.036l0.094,0.034l0.094,0.032l0.094,0.029l0.095,0.027l0.096,0.025l0.096,0.022l0.097,0.02l0.097,0.017l0.097,0.016l0.097,0.012l0.098,0.011l0.098,0.008l0.098,0.006l0.098,0.004l0.098,0.001l0.098,-0.001l0.098,-0.004l0.098,-0.006l0.098,-0.008l0.098,-0.011l0.097,-0.012l0.098,-0.016l0.097,-0.017l0.096,-0.02l0.096,-0.022l0.096,-0.025l0.095,-0.027l0.095,-0.029l0.094,-0.032l0.093,-0.034l0.093,-0.036l0.092,-0.038l0.091,-0.041l0.09,-0.044l0.09,-0.045l0.088,-0.048l0.088,-0.051l0.087,-0.052l0.085,-0.055l0.085,-0.057l0.083,-0.06l0.082,-0.062l0.081,-0.064l0.08,-0.067l0.078,-0.069l0.077,-0.072l0.076,-0.073l2.893,-2.893l0.073,-0.076l0.072,-0.077l0.069,-0.078l0.067,-0.08l0.064,-0.081l0.062,-0.082l0.06,-0.083l0.057,-0.085l0.055,-0.085l0.052,-0.087l0.051,-0.088l0.048,-0.088l0.045,-0.09l0.044,-0.09l0.041,-0.091l0.038,-0.092l0.036,-0.093l0.034,-0.093l0.032,-0.094l0.029,-0.095l0.027,-0.095l0.025,-0.096l0.022,-0.096l0.02,-0.096l0.017,-0.097l0.016,-0.097l0.012,-0.098l0.011,-0.097l0.008,-0.098l0.006,-0.098l0.004,-0.098l0.001,-0.098l-0.001,-0.099l-0.004,-0.098l-0.006,-0.098l-0.008,-0.098l-0.011,-0.097l-0.012,-0.098l-0.016,-0.097l-0.017,-0.097l-0.02,-0.096l-0.022,-0.096l-0.025,-0.096l-0.027,-0.095l-0.029,-0.095l-0.032,-0.094l-0.034,-0.093l-0.036,-0.093l-0.038,-0.092l-0.041,-0.091l-0.044,-0.09l-0.045,-0.09l-0.048,-0.089l-0.051,-0.087l-0.052,-0.087l-0.055,-0.086l-0.057,-0.084l-0.06,-0.084l-0.062,-0.082l-0.064,-0.081l-0.067,-0.08l-0.069,-0.078l-0.072,-0.077l-0.073,-0.076l-13.017,-13.016l13.017,-13.016l0.073,-0.076l0.072,-0.077l0.069,-0.078l0.067,-0.08l0.064,-0.081l0.062,-0.082l0.06,-0.083l0.057,-0.085l0.055,-0.086l0.052,-0.086l0.051,-0.088l0.048,-0.088l0.045,-0.09l0.044,-0.09l0.041,-0.091l0.038,-0.092l0.036,-0.093l0.034,-0.093l0.032,-0.094l0.029,-0.095l0.027,-0.095l0.025,-0.096l0.022,-0.096l0.02,-0.096l0.017,-0.097l0.016,-0.097l0.012,-0.098l0.011,-0.098l0.008,-0.097l0.006,-0.098l0.004,-0.098l0.001,-0.099l-0.001,-0.098l-0.004,-0.098l-0.006,-0.098l-0.008,-0.098l-0.011,-0.097l-0.012,-0.098l-0.016,-0.097l-0.017,-0.097l-0.02,-0.096l-0.022,-0.097l-0.025,-0.095l-0.027,-0.095l-0.029,-0.095l-0.032,-0.094l-0.034,-0.093l-0.036,-0.093l-0.038,-0.092l-0.041,-0.091l-0.044,-0.091l-0.045,-0.089l-0.048,-0.089l-0.051,-0.088l-0.052,-0.086l-0.055,-0.086l-0.057,-0.084l-0.06,-0.084l-0.062,-0.082l-0.064,-0.081l-0.067,-0.08l-0.069,-0.078l-0.072,-0.077l-0.073,-0.076l-2.893,-2.893l-0.076,-0.073l-0.077,-0.072l-0.078,-0.069l-0.08,-0.067l-0.081,-0.064l-0.082,-0.062l-0.083,-0.06l-0.085,-0.057l-0.085,-0.055l-0.087,-0.052l-0.088,-0.051l-0.088,-0.048l-0.09,-0.045l-0.09,-0.044l-0.091,-0.041l-0.092,-0.038l-0.093,-0.036l-0.093,-0.034l-0.094,-0.032l-0.095,-0.029l-0.095,-0.027l-0.096,-0.025l-0.096,-0.022l-0.096,-0.02l-0.097,-0.017l-0.097,-0.016l-0.098,-0.012l-0.097,-0.011l-0.098,-0.008l-0.098,-0.006l-0.098,-0.004l-0.098,-0.001l-0.099,0.001l-0.098,0.004l-0.098,0.006l-0.098,0.008l-0.097,0.011l-0.098,0.012l-0.097,0.016l-0.097,0.017l-0.096,0.02l-0.096,0.022l-0.096,0.025l-0.095,0.027l-0.095,0.029l-0.094,0.032l-0.093,0.034l-0.093,0.036l-0.092,0.038l-0.091,0.041l-0.09,0.044l-0.09,0.045l-0.089,0.048l-0.087,0.051l-0.087,0.052l-0.086,0.055l-0.084,0.057l-0.084,0.06l-0.082,0.062l-0.081,0.064l-0.08,0.067l-0.078,0.069l-0.077,0.072l-0.076,0.073l-13.016,13.017l-13.016,-13.017l-0.076,-0.073l-0.077,-0.072l-0.078,-0.069l-0.08,-0.067l-0.081,-0.064l-0.082,-0.062l-0.083,-0.06l-0.085,-0.057l-0.086,-0.055l-0.086,-0.052l-0.088,-0.051l-0.088,-0.048l-0.09,-0.045l-0.09,-0.044l-0.091,-0.041l-0.092,-0.038l-0.093,-0.036l-0.093,-0.034l-0.094,-0.032l-0.095,-0.029l-0.095,-0.027l-0.096,-0.025l-0.096,-0.022l-0.096,-0.02l-0.097,-0.017l-0.097,-0.016l-0.098,-0.012l-0.098,-0.011l-0.097,-0.008l-0.098,-0.006l-0.098,-0.004l-0.099,-0.001l-0.098,0.001Z"/><defs><linearGradient id="_Linear1" x1="0" y1="0" x2="1" y2="0" gradientUnits="userSpaceOnUse" gradientTransform="matrix(-40.0114,-40.0893,40.0893,-40.0114,52.118,52.0574)"><stop offset="0" style="stop-color:#0ff;stop-opacity:1"/><stop offset="0.5" style="stop-color:#f0f;stop-opacity:1"/><stop offset="1" style="stop-color:#ff0;stop-opacity:1"/></linearGradient></defs></svg>