<?xml version="1.0" encoding="UTF-8" standalone="no"?>
<!DOCTYPE svg PUBLIC "-//W3C//DTD SVG 1.1//EN" "http://www.w3.org/Graphics/SVG/1.1/DTD/svg11.dtd">
<svg width="100%" height="100%" viewBox="0 0 512 512" version="1.1" xmlns="http://www.w3.org/2000/svg" xmlns:xlink="http://www.w3.org/1999/xlink" xml:space="preserve" xmlns:serif="http://www.serif.com/" style="fill-rule:evenodd;clip-rule:evenodd;stroke-linejoin:round;stroke-miterlimit:2;">
    <g transform="matrix(3.23445,0,0,3.23445,-76.5095,-73.1246)">
        <path d="M127.694,33.063L93.746,170.69L98.517,170.69L131.447,34.113L127.694,33.063Z" style="fill:rgb(99,190,190);fill-rule:nonzero;"/>
    </g>
    <g transform="matrix(3.23445,0,0,3.23445,-76.5095,-73.1246)">
        <path d="M127.694,33.063L126.723,32.824L92.469,171.69L99.305,171.69L132.645,33.41L126.97,31.822L126.723,32.824L127.694,33.063L127.424,34.026L130.248,34.816L97.729,169.69L95.023,169.69L128.664,33.303L127.694,33.063L127.424,34.026L127.694,33.063Z" style="fill:rgb(94,58,32);fill-rule:nonzero;"/>
    </g>
    <g transform="matrix(3.23445,0,0,3.23445,-76.5095,-73.1246)">
        <path d="M132.664,75.968L122.384,75.968L125.831,61.671C129.381,65.58 131.823,70.508 132.664,75.968ZM116.081,75.968L87.981,75.968C87.79,74.838 87.687,73.676 87.687,72.492C87.687,63.197 93.768,55.328 102.165,52.632L105.419,52.632C111.074,52.633 116.325,54.332 120.698,57.25L119.773,60.999C116.669,58.586 110.532,55.48 106.442,55.48C104.258,55.48 102.657,56.367 102.415,58.716L102.407,58.745L102.44,58.902C102.221,61.488 104.652,64.698 106.22,66.571C106.349,66.725 106.481,66.876 106.614,67.023C108.478,69.065 110.753,69.945 113.159,69.945C114.681,69.945 116.255,69.593 117.809,68.96L116.081,75.968Z" style="fill:white;fill-rule:nonzero;"/>
    </g>
    <g transform="matrix(3.23445,0,0,3.23445,-76.5095,-73.1246)">
        <path d="M120.327,75.968L118.141,75.968L120.18,67.7C121.894,66.497 123.033,64.772 121.439,62.597L122.445,58.517C123.043,58.987 123.621,59.481 124.177,59.998L120.327,75.968Z" style="fill:rgb(155,210,209);fill-rule:nonzero;"/>
    </g>
    <g transform="matrix(3.23445,0,0,3.23445,-76.5095,-73.1246)">
        <path d="M122.384,75.968L120.327,75.968L124.177,59.998C124.426,60.23 124.672,60.466 124.912,60.707C125.226,61.02 125.533,61.342 125.831,61.671L122.384,75.968ZM118.141,75.968L116.081,75.968L117.809,68.96C117.832,68.951 117.854,68.942 117.876,68.933C118.639,68.618 119.46,68.205 120.18,67.7L118.141,75.968ZM121.439,62.597C121.413,62.563 121.387,62.527 121.36,62.492C121.028,62.06 120.478,61.547 119.773,60.999L120.698,57.25C121.297,57.65 121.88,58.073 122.445,58.517L121.439,62.597Z" style="fill:rgb(139,107,72);fill-rule:nonzero;"/>
    </g>
    <g transform="matrix(3.23445,0,0,3.23445,-76.5095,-73.1246)">
        <path d="M132.928,81.967L120.937,81.967L122.384,75.968L132.664,75.968C132.876,77.347 132.986,78.761 132.986,80.2C132.986,80.794 132.967,81.383 132.928,81.967ZM114.601,81.967L72.557,81.967C72.519,81.383 72.499,80.794 72.499,80.2C72.5,72.584 75.583,65.699 80.574,60.707C85.565,55.716 92.451,52.633 100.068,52.633L102.165,52.632C93.768,55.328 87.687,63.197 87.687,72.492C87.687,73.676 87.79,74.838 87.981,75.968L116.081,75.968L114.601,81.967Z" style="fill:rgb(180,200,211);fill-rule:nonzero;"/>
    </g>
    <g transform="matrix(3.23445,0,0,3.23445,-76.5095,-73.1246)">
        <path d="M118.88,81.967L116.661,81.967L118.141,75.968L120.327,75.968L118.88,81.967Z" style="fill:rgb(110,171,175);fill-rule:nonzero;"/>
    </g>
    <g transform="matrix(3.23445,0,0,3.23445,-76.5095,-73.1246)">
        <path d="M120.937,81.967L118.88,81.967L120.327,75.968L122.384,75.968L120.937,81.967ZM116.661,81.967L114.601,81.967L116.081,75.968L118.141,75.968L116.661,81.967Z" style="fill:rgb(106,88,61);fill-rule:nonzero;"/>
    </g>
    <g transform="matrix(3.23445,0,0,3.23445,-76.5095,-73.1246)">
        <path d="M133.584,84.961L134.571,85.126C134.839,83.526 134.986,81.881 134.986,80.2C134.986,63.869 121.75,50.633 105.419,50.632L100.068,50.633C83.736,50.633 70.5,63.869 70.499,80.2C70.499,81.882 70.647,83.526 70.914,85.126C70.994,85.608 71.411,85.961 71.9,85.961L133.584,85.961C134.073,85.961 134.49,85.609 134.571,85.126L133.584,84.961L133.584,83.961L71.9,83.961L71.9,84.961L72.887,84.796C72.637,83.298 72.499,81.764 72.499,80.2C72.5,72.584 75.583,65.699 80.574,60.707C85.565,55.716 92.451,52.633 100.068,52.633L105.419,52.632C113.035,52.633 119.921,55.716 124.912,60.707C129.901,65.698 132.986,72.584 132.986,80.2C132.986,81.765 132.849,83.298 132.598,84.796L133.584,84.961L133.584,83.961L133.584,84.961Z" style="fill:rgb(94,58,32);fill-rule:nonzero;"/>
    </g>
    <g transform="matrix(3.23445,0,0,3.23445,-76.5095,-73.1246)">
        <path d="M131.447,104.402L127.404,104.402L127.85,100.209L130.822,100.209C131.374,100.209 131.822,99.761 131.822,99.209C131.822,98.656 131.374,98.209 130.822,98.209L128.063,98.209L128.606,93.104L118.252,93.104L118.552,91.863L132.706,91.863L131.446,104.402M116.492,104.402L115.528,104.402L117.153,97.663L116.492,104.402ZM109.067,104.402L84.657,104.402L83.398,91.863L112.16,91.863L109.067,104.402Z" style="fill:rgb(230,230,222);fill-rule:nonzero;"/>
    </g>
    <g transform="matrix(3.23445,0,0,3.23445,-76.5095,-73.1246)">
        <path d="M113.471,104.402L111.127,104.402L114.22,91.863L116.494,91.863L113.471,104.402Z" style="fill:rgb(161,200,193);fill-rule:nonzero;"/>
    </g>
    <g transform="matrix(3.23445,0,0,3.23445,-76.5095,-73.1246)">
        <path d="M115.528,104.402L113.471,104.402L116.494,91.863L118.552,91.863L118.252,93.104L117.6,93.104L117.153,97.663L115.528,104.402ZM111.127,104.402L109.067,104.402L112.16,91.863L114.22,91.863L111.127,104.402Z" style="fill:rgb(146,121,98);fill-rule:nonzero;"/>
    </g>
    <g transform="matrix(3.23445,0,0,3.23445,-76.5095,-73.1246)">
        <path d="M74.038,104.402L80.695,170.69L124.79,170.69L131.447,104.402L74.038,104.402Z" style="fill:rgb(230,185,136);fill-rule:nonzero;"/>
    </g>
    <g transform="matrix(3.23445,0,0,3.23445,-76.5095,-73.1246)">
        <path d="M75.992,123.844L80.695,170.69L124.79,170.69L129.494,123.844L75.992,123.844Z" style="fill:rgb(147,98,61);fill-rule:nonzero;"/>
    </g>
    <g transform="matrix(3.23445,0,0,3.23445,-76.5095,-73.1246)">
        <path d="M78.421,148.048L80.695,170.69L124.79,170.69L127.064,148.048L78.421,148.048Z" style="fill:rgb(118,77,46);fill-rule:nonzero;"/>
    </g>
    <g transform="matrix(3.23445,0,0,3.23445,-76.5095,-73.1246)">
        <path d="M139.359,90.863L66.125,90.863L67.668,82.967L137.047,82.967L139.359,90.863Z" style="fill:rgb(176,115,65);fill-rule:nonzero;"/>
    </g>
    <g transform="matrix(3.23445,0,0,3.23445,-76.5095,-73.1246)">
        <path d="M139.359,90.863L139.359,89.863L67.34,89.863L68.492,83.967L136.298,83.967L138.399,91.144L139.359,90.863L139.359,89.863L139.359,90.863L140.319,90.582L137.796,81.967L66.844,81.967L64.911,91.863L140.694,91.863L140.319,90.582L139.359,90.863Z" style="fill:rgb(94,58,32);fill-rule:nonzero;"/>
    </g>
    <g transform="matrix(3.23445,0,0,3.23445,-76.5095,-73.1246)">
        <path d="M124.685,160.079L102.743,160.079L124.685,160.079Z" style="fill:rgb(245,131,78);fill-rule:nonzero;"/>
    </g>
    <g transform="matrix(3.23445,0,0,3.23445,-76.5095,-73.1246)">
        <path d="M124.685,159.079L102.743,159.079C102.19,159.079 101.743,159.527 101.743,160.079C101.743,160.632 102.19,161.079 102.743,161.079L124.685,161.079C125.237,161.079 125.685,160.632 125.685,160.079C125.685,159.527 125.237,159.079 124.685,159.079Z" style="fill:rgb(94,58,32);fill-rule:nonzero;"/>
    </g>
    <g transform="matrix(3.23445,0,0,3.23445,-76.5095,-73.1246)">
        <path d="M122.204,99.209L130.822,99.209L122.204,99.209Z" style="fill:rgb(245,131,78);fill-rule:nonzero;"/>
    </g>
    <g transform="matrix(3.23445,0,0,3.23445,-76.5095,-73.1246)">
        <path d="M122.204,100.209L130.822,100.209C131.374,100.209 131.822,99.761 131.822,99.209C131.822,98.656 131.374,98.209 130.822,98.209L122.204,98.209C121.651,98.209 121.204,98.656 121.204,99.209C121.204,99.761 121.651,100.209 122.204,100.209Z" style="fill:rgb(94,58,32);fill-rule:nonzero;"/>
    </g>
    <g transform="matrix(3.23445,0,0,3.23445,-76.5095,-73.1246)">
        <path d="M86.923,160.079L95.541,160.079L86.923,160.079Z" style="fill:rgb(245,131,78);fill-rule:nonzero;"/>
    </g>
    <g transform="matrix(3.23445,0,0,3.23445,-76.5095,-73.1246)">
        <path d="M86.923,161.079L95.541,161.079C96.093,161.079 96.541,160.632 96.541,160.079C96.541,159.527 96.093,159.079 95.541,159.079L86.923,159.079C86.371,159.079 85.923,159.527 85.923,160.079C85.923,160.632 86.371,161.079 86.923,161.079Z" style="fill:rgb(94,58,32);fill-rule:nonzero;"/>
    </g>
    <g transform="matrix(3.23445,0,0,3.23445,-76.5095,-73.1246)">
        <path d="M119.272,129.042C119.272,138.17 111.872,145.57 102.743,145.57C93.613,145.57 86.212,138.17 86.212,129.042C86.212,119.912 93.613,112.512 102.743,112.512C111.872,112.512 119.272,119.912 119.272,129.042Z" style="fill:rgb(99,190,190);fill-rule:nonzero;"/>
    </g>
    <g transform="matrix(3.23445,0,0,3.23445,-76.5095,-73.1246)">
        <path d="M119.272,129.042L118.272,129.042C118.272,133.333 116.536,137.209 113.724,140.022C110.91,142.833 107.034,144.569 102.743,144.57C98.451,144.569 94.574,142.833 91.761,140.022C88.949,137.209 87.212,133.333 87.212,129.042C87.212,124.75 88.949,120.874 91.761,118.06C94.574,115.249 98.451,113.512 102.743,113.512C107.034,113.512 110.91,115.249 113.724,118.06C116.536,120.874 118.272,124.75 118.272,129.042L120.272,129.042C120.272,119.36 112.424,111.513 102.743,111.512C93.061,111.513 85.213,119.36 85.212,129.042C85.213,138.723 93.061,146.569 102.743,146.57C112.424,146.569 120.272,138.723 120.272,129.042L119.272,129.042Z" style="fill:rgb(94,58,32);fill-rule:nonzero;"/>
    </g>
    <g transform="matrix(3.23445,0,0,3.23445,-76.5095,-73.1246)">
        <path d="M100.889,139.252C101.382,139.09 101.836,138.801 102.23,138.346C103.488,136.888 104.112,134.175 103.361,132.352C102.835,131.079 101.72,130.228 100.87,129.187C98.965,126.854 97.848,123.827 99.066,120.869C99.312,120.271 99.602,119.716 99.937,119.205C97.041,120.332 94.985,123.137 94.985,126.432L94.985,131.727C94.985,135.372 97.501,138.42 100.889,139.252Z" style="fill:rgb(176,115,65);fill-rule:nonzero;"/>
    </g>
    <g transform="matrix(3.23445,0,0,3.23445,-76.5095,-73.1246)">
        <path d="M100.889,139.252L101.202,140.202C101.857,139.989 102.482,139.586 102.986,139.001L102.987,139C104.064,137.731 104.674,135.924 104.686,134.155C104.685,133.408 104.569,132.662 104.285,131.971C103.955,131.174 103.463,130.552 102.981,130.015C102.497,129.477 102.017,129.014 101.644,128.554C100.388,127.018 99.553,125.201 99.558,123.426C99.558,122.704 99.69,121.981 99.991,121.25C100.215,120.706 100.476,120.208 100.774,119.753L102.489,117.139L99.574,118.273C96.307,119.543 93.987,122.712 93.985,126.432L93.985,131.727C93.987,135.843 96.825,139.284 100.65,140.223L100.929,140.292L101.202,140.202L100.889,139.252L101.128,138.281C98.177,137.555 95.984,134.901 95.985,131.727L95.985,126.432C95.984,123.563 97.775,121.121 100.3,120.137L99.937,119.205L99.101,118.656C98.728,119.224 98.409,119.837 98.141,120.488C97.739,121.462 97.557,122.457 97.557,123.426C97.562,125.828 98.641,128.034 100.095,129.819C100.572,130.401 101.076,130.884 101.493,131.351C101.913,131.818 102.241,132.258 102.436,132.734C102.598,133.124 102.686,133.618 102.686,134.155C102.698,135.427 102.165,136.912 101.473,137.693L101.474,137.691C101.19,138.016 100.906,138.191 100.577,138.302L100.889,139.252L101.128,138.281L100.889,139.252Z" style="fill:rgb(94,58,32);fill-rule:nonzero;"/>
    </g>
    <g transform="matrix(3.23445,0,0,3.23445,-76.5095,-73.1246)">
        <path d="M103.92,118.773C102.188,119.45 101.005,121.366 100.963,123.242C100.92,125.238 101.816,126.752 103.144,128.174C105.36,130.54 106.53,132.884 105.752,136.22C105.455,137.503 104.979,138.518 104.376,139.309C107.875,138.559 110.501,135.45 110.501,131.727L110.501,126.432C110.501,122.549 107.645,119.341 103.92,118.773Z" style="fill:rgb(176,115,65);fill-rule:nonzero;"/>
    </g>
    <g transform="matrix(3.23445,0,0,3.23445,-76.5095,-73.1246)">
        <path d="M103.92,118.773L103.556,117.841C102.462,118.271 101.584,119.066 100.969,120.014C100.354,120.964 99.99,122.079 99.963,123.219L99.961,123.379C99.96,124.497 100.224,125.515 100.668,126.418C101.111,127.323 101.722,128.116 102.413,128.856C103.249,129.748 103.897,130.606 104.33,131.476C104.762,132.348 104.991,133.227 104.993,134.241C104.993,134.78 104.926,135.359 104.778,135.993C104.506,137.163 104.086,138.039 103.581,138.703L101.943,140.854L104.586,140.287C108.539,139.439 111.499,135.931 111.501,131.727L111.501,126.432C111.499,122.046 108.278,118.426 104.071,117.784L103.806,117.744L103.556,117.841L103.92,118.773L103.77,119.761C107.012,120.256 109.503,123.051 109.501,126.432L109.501,131.727C109.503,134.969 107.212,137.678 104.167,138.331L104.376,139.309L105.172,139.915C105.872,138.997 106.403,137.843 106.726,136.446C106.904,135.68 106.993,134.946 106.993,134.241C106.995,132.913 106.674,131.693 106.12,130.584C105.566,129.473 104.79,128.469 103.874,127.49C103.268,126.842 102.788,126.202 102.465,125.539C102.141,124.874 101.963,124.189 101.962,123.379L101.963,123.264C101.978,122.529 102.227,121.748 102.647,121.102C103.066,120.454 103.646,119.952 104.285,119.704L103.92,118.773L103.77,119.761L103.92,118.773Z" style="fill:rgb(94,58,32);fill-rule:nonzero;"/>
    </g>
    <g transform="matrix(3.23445,0,0,3.23445,-76.5095,-73.1246)">
        <path d="M127.404,104.402L116.492,104.402L117.153,97.663L118.252,93.104L128.606,93.104L128.063,98.209L122.204,98.209C121.651,98.209 121.204,98.656 121.204,99.209C121.204,99.761 121.651,100.209 122.204,100.209L127.85,100.209L127.404,104.402Z" style="fill:rgb(242,242,237);fill-rule:nonzero;"/>
    </g>
    <g transform="matrix(3.23445,0,0,3.23445,-76.5095,-73.1246)">
        <path d="M117.153,97.663L117.6,93.104L118.252,93.104L117.153,97.663Z" style="fill:rgb(189,171,153);fill-rule:nonzero;"/>
    </g>
    <g transform="matrix(3.23445,0,0,3.23445,-76.5095,-73.1246)">
        <path d="M125.335,123.844L119.489,123.844C118.656,121.158 117.195,118.749 115.278,116.788L116.492,104.402L127.404,104.402L125.335,123.844Z" style="fill:rgb(241,214,181);fill-rule:nonzero;"/>
    </g>
    <g transform="matrix(3.23445,0,0,3.23445,-76.5095,-73.1246)">
        <path d="M122.76,148.048L112.213,148.048L112.659,143.497C117.257,140.338 120.272,135.042 120.272,129.042C120.272,127.232 119.998,125.486 119.489,123.844L125.335,123.844L122.76,148.048Z" style="fill:rgb(189,150,113);fill-rule:nonzero;"/>
    </g>
    <g transform="matrix(3.23445,0,0,3.23445,-76.5095,-73.1246)">
        <path d="M121.586,159.079L111.132,159.079L112.213,148.048L122.76,148.048L121.586,159.079Z" style="fill:rgb(169,132,101);fill-rule:nonzero;"/>
    </g>
    <g transform="matrix(3.23445,0,0,3.23445,-76.5095,-73.1246)">
        <path d="M121.47,160.168L112.304,160.168L111.025,160.168L111.132,159.079L121.586,159.079L121.47,160.168Z" style="fill:rgb(149,113,82);fill-rule:nonzero;"/>
    </g>
    <g transform="matrix(3.23445,0,0,3.23445,-76.5095,-73.1246)">
        <path d="M127.85,100.209L122.204,100.209C121.651,100.209 121.204,99.761 121.204,99.209C121.204,98.656 121.651,98.209 122.204,98.209L128.063,98.209L127.85,100.209Z" style="fill:rgb(149,113,82);fill-rule:nonzero;"/>
    </g>
    <g transform="matrix(3.23445,0,0,3.23445,-76.5095,-73.1246)">
        <path d="M112.927,140.764L115.01,119.518C117.056,122.149 118.272,125.45 118.272,129.042C118.272,133.333 116.536,137.209 113.724,140.022C113.467,140.278 113.201,140.526 112.927,140.764Z" style="fill:rgb(161,213,216);fill-rule:nonzero;"/>
    </g>
    <g transform="matrix(3.23445,0,0,3.23445,-76.5095,-73.1246)">
        <path d="M112.659,143.497L112.927,140.764C113.201,140.526 113.467,140.278 113.724,140.022C116.536,137.209 118.272,133.333 118.272,129.042C118.272,125.45 117.056,122.149 115.01,119.518L115.278,116.788C117.195,118.749 118.656,121.158 119.489,123.844C119.998,125.486 120.272,127.232 120.272,129.042C120.272,135.042 117.257,140.338 112.659,143.497Z" style="fill:rgb(149,113,82);fill-rule:nonzero;"/>
    </g>
    <g transform="matrix(3.23445,0,0,3.23445,-76.5095,-73.1246)">
        <path d="M124.79,170.69L102.743,170.69L99.546,170.69L124.79,170.69L125.847,160.168L124.79,170.69Z" style="fill:rgb(180,200,211);fill-rule:nonzero;"/>
    </g>
    <g transform="matrix(3.23445,0,0,3.23445,-76.5095,-73.1246)">
        <path d="M84.657,104.402L74.038,104.402L72.779,91.863L83.398,91.863L84.657,104.402Z" style="fill:rgb(167,184,185);fill-rule:nonzero;"/>
    </g>
    <g transform="matrix(3.23445,0,0,3.23445,-76.5095,-73.1246)">
        <path d="M80.695,170.69L74.038,104.402L84.657,104.402L86.474,122.499C86.297,122.938 86.137,123.388 85.996,123.844L75.992,123.844L78.422,148.048L78.421,148.048L80.695,170.69Z" style="fill:rgb(169,148,114);fill-rule:nonzero;"/>
    </g>
    <g transform="matrix(3.23445,0,0,3.23445,-76.5095,-73.1246)">
        <path d="M89.039,148.048L78.421,148.048L75.992,123.844L85.996,123.844C85.486,125.486 85.212,127.232 85.212,129.042C85.212,132.603 86.274,135.916 88.099,138.681L89.039,148.048Z" style="fill:rgb(111,80,51);fill-rule:nonzero;"/>
    </g>
    <g transform="matrix(3.23445,0,0,3.23445,-76.5095,-73.1246)">
        <path d="M124.79,170.69L99.546,170.69L92.716,170.69L80.695,170.69L78.421,148.048L89.039,148.048L90.147,159.079L86.923,159.079C86.371,159.079 85.923,159.527 85.923,160.079C85.923,160.632 86.371,161.079 86.923,161.079L95.541,161.079C96.064,161.079 96.492,160.679 96.537,160.168L101.747,160.168C101.791,160.679 102.22,161.079 102.743,161.079L110.936,161.079L110.501,165.513L120.901,165.513L121.373,161.079L124.685,161.079C125.208,161.079 125.636,160.679 125.681,160.168L125.847,160.168L124.79,170.69Z" style="fill:rgb(91,63,38);fill-rule:nonzero;"/>
    </g>
    <g transform="matrix(3.23445,0,0,3.23445,-76.5095,-73.1246)">
        <path d="M83.398,91.863L72.779,91.863L72.679,90.863L83.298,90.863L83.398,91.863Z" style="fill:rgb(73,47,25);fill-rule:nonzero;"/>
    </g>
    <g transform="matrix(3.23445,0,0,3.23445,-76.5095,-73.1246)">
        <path d="M124.685,161.079L121.373,161.079L121.47,160.168L125.681,160.168C125.636,160.679 125.208,161.079 124.685,161.079ZM110.936,161.079L102.743,161.079C102.22,161.079 101.791,160.679 101.747,160.168L111.025,160.168L110.936,161.079Z" style="fill:rgb(73,47,25);fill-rule:nonzero;"/>
    </g>
    <g transform="matrix(3.23445,0,0,3.23445,-76.5095,-73.1246)">
        <path d="M95.541,161.079L86.923,161.079C86.371,161.079 85.923,160.632 85.923,160.079C85.923,159.527 86.371,159.079 86.923,159.079L90.147,159.079L90.256,160.168L96.537,160.168C96.492,160.679 96.064,161.079 95.541,161.079Z" style="fill:rgb(73,47,25);fill-rule:nonzero;"/>
    </g>
    <g transform="matrix(3.23445,0,0,3.23445,-76.5095,-73.1246)">
        <path d="M88.099,138.681C86.274,135.916 85.212,132.603 85.212,129.042C85.212,127.232 85.486,125.486 85.996,123.844C86.137,123.388 86.297,122.938 86.474,122.499L88.099,138.681Z" style="fill:rgb(73,47,25);fill-rule:nonzero;"/>
    </g>
    <g transform="matrix(3.23445,0,0,3.23445,-76.5095,-73.1246)">
        <path d="M120.901,165.513L110.501,165.513L110.936,161.079L121.373,161.079L120.901,165.513Z" style="fill:rgb(127,108,85);fill-rule:nonzero;"/>
    </g>
    <g transform="matrix(3.23445,0,0,3.23445,-76.5095,-73.1246)">
        <path d="M121.373,161.079L110.936,161.079L111.025,160.168L121.47,160.168L121.373,161.079Z" style="fill:rgb(113,93,69);fill-rule:nonzero;"/>
    </g>
    <g transform="matrix(3.23445,0,0,3.23445,-76.5095,-73.1246)">
        <path d="M102.743,90.863L102.743,89.863L72.679,89.863C72.397,89.863 72.126,89.983 71.937,90.192C71.748,90.401 71.655,90.682 71.684,90.963L79.7,170.79C79.751,171.3 80.182,171.69 80.695,171.69L124.79,171.69C125.302,171.69 125.733,171.3 125.785,170.79L133.801,90.963C133.829,90.682 133.737,90.401 133.548,90.192C133.358,89.983 133.088,89.863 132.806,89.863L102.743,89.863L102.743,91.863L131.701,91.863L123.885,169.69L102.743,169.69L81.599,169.69L73.784,91.863L102.743,91.863L102.743,90.863Z" style="fill:rgb(94,58,32);fill-rule:nonzero;"/>
    </g>
    <g transform="matrix(3.23445,0,0,3.23445,-76.5095,-73.1246)">
        <path d="M74.004,99.209L94.985,99.209" style="fill:none;fill-rule:nonzero;"/>
    </g>
    <g transform="matrix(3.23445,0,0,3.23445,-76.5095,-73.1246)">
        <path d="M74.004,100.209L94.985,100.209C95.538,100.209 95.985,99.761 95.985,99.209C95.985,98.656 95.538,98.209 94.985,98.209L74.004,98.209C73.452,98.209 73.004,98.656 73.004,99.209C73.004,99.761 73.452,100.209 74.004,100.209Z" style="fill:rgb(94,58,32);fill-rule:nonzero;"/>
    </g>
    <g transform="matrix(3.23445,0,0,3.23445,-76.5095,-73.1246)">
        <path d="M103.685,99.209L112.304,99.209" style="fill:none;fill-rule:nonzero;"/>
    </g>
    <g transform="matrix(3.23445,0,0,3.23445,-76.5095,-73.1246)">
        <path d="M103.685,100.209L112.304,100.209C112.856,100.209 113.304,99.761 113.304,99.209C113.304,98.656 112.856,98.209 112.304,98.209L103.685,98.209C103.133,98.209 102.685,98.656 102.685,99.209C102.685,99.761 103.133,100.209 103.685,100.209Z" style="fill:rgb(94,58,32);fill-rule:nonzero;"/>
    </g>
    <g transform="matrix(3.23445,0,0,3.23445,-76.5095,-73.1246)">
        <path d="M113.159,69.945C110.753,69.945 108.478,69.065 106.614,67.023C106.481,66.876 106.349,66.725 106.22,66.571C104.652,64.698 102.221,61.488 102.44,58.902L102.407,58.745L102.415,58.716C102.657,56.367 104.258,55.48 106.442,55.48C110.532,55.48 116.669,58.586 119.773,60.999L117.809,68.96C116.255,69.593 114.681,69.945 113.159,69.945Z" style="fill:white;fill-rule:nonzero;"/>
    </g>
    <g transform="matrix(3.23445,0,0,3.23445,-76.5095,-73.1246)">
        <path d="M120.18,67.7L121.439,62.597C123.033,64.772 121.894,66.497 120.18,67.7Z" style="fill:rgb(197,229,229);fill-rule:nonzero;"/>
    </g>
    <g transform="matrix(3.23445,0,0,3.23445,-76.5095,-73.1246)">
        <path d="M117.809,68.96L119.773,60.999C120.478,61.547 121.028,62.06 121.36,62.492C121.387,62.527 121.413,62.563 121.439,62.597L120.18,67.7C119.46,68.205 118.639,68.618 117.876,68.933C117.854,68.942 117.832,68.951 117.809,68.96Z" style="fill:rgb(184,160,128);fill-rule:nonzero;"/>
    </g>
</svg>
