<?xml version="1.0" encoding="UTF-8" standalone="no"?>
<!DOCTYPE svg PUBLIC "-//W3C//DTD SVG 1.1//EN" "http://www.w3.org/Graphics/SVG/1.1/DTD/svg11.dtd">
<svg width="100%" height="100%" viewBox="0 0 512 320" version="1.1" xmlns="http://www.w3.org/2000/svg" xmlns:xlink="http://www.w3.org/1999/xlink" xml:space="preserve" xmlns:serif="http://www.serif.com/" style="fill-rule:evenodd;clip-rule:evenodd;stroke-linejoin:round;stroke-miterlimit:2;">
    <g id="Artboard1" transform="matrix(1.14221,0,0,0.995674,-44.2134,-94.6556)">
        <rect x="38.709" y="95.067" width="448.255" height="321.39" style="fill:none;"/>
        <g transform="matrix(0.975269,0,0,1,5.89454,9.27498)">
            <path d="M215.455,121.803L187.284,298.829C184.746,315.072 181.129,328.968 176.434,340.515C171.738,352.063 165.584,361.517 157.97,368.878C150.356,376.238 141.155,381.631 130.369,385.057C119.582,388.484 106.702,390.197 91.728,390.197C84.368,390.197 76.627,389.309 68.505,387.532C60.384,385.755 53.785,383.598 48.709,381.06L58.607,322.813C62.668,324.589 67.49,326.049 73.074,327.191C78.657,328.333 83.733,328.904 88.302,328.904C98.707,328.904 106.448,326.556 111.524,321.861C116.6,317.166 120.153,308.346 122.184,295.402L149.975,121.803L215.455,121.803ZM315.58,121.803C315.58,121.803 379.537,272.687 381.821,279.032L388.522,278.518C389.03,272.68 405.518,119.871 405.518,119.871L463.291,121.803L423.199,380.197L371.522,375.115C371.522,375.115 350.258,325.398 337.553,290.521C324.849,255.644 302.382,226.876 300.352,220.785L299.209,220.785C298.702,226.369 297.94,233.666 296.925,242.675C295.91,251.685 276.115,376.639 276.115,376.639C265.083,380.487 245.502,381.809 219.262,381.441C219.262,381.441 229.606,304.241 242.949,250.897C256.293,197.553 260.378,121.803 260.378,121.803L315.58,121.803Z" style="fill:rgb(255,255,0);fill-rule:nonzero;"/>
        </g>
        <g transform="matrix(0.975269,0,0,1,19.5483,6.27498)">
            <path d="M215.455,121.803L187.284,298.829C184.746,315.072 181.129,328.968 176.434,340.515C171.738,352.063 165.584,361.517 157.97,368.878C150.356,376.238 141.155,381.631 130.369,385.057C119.582,388.484 106.702,390.197 91.728,390.197C84.368,390.197 76.627,389.309 68.505,387.532C60.384,385.755 53.785,383.598 48.709,381.06L58.607,322.813C62.668,324.589 67.49,326.049 73.074,327.191C78.657,328.333 83.733,328.904 88.302,328.904C98.707,328.904 106.448,326.556 111.524,321.861C116.6,317.166 120.153,308.346 122.184,295.402L149.975,121.803L215.455,121.803ZM304.777,122.871C304.777,122.871 376.237,274.981 378.521,281.326L386.43,279.867C386.938,274.029 406.948,121.803 406.948,121.803L464.205,119.039C464.205,119.039 452.374,196.526 443.092,240.703C437.109,269.181 422.176,381.441 422.176,381.441L367.355,381.441L329.665,293.499C322.559,277.002 307.472,226.868 305.441,220.777L304.299,220.777C303.792,226.361 275.606,381.441 275.606,381.441L219.262,381.441L260.378,121.803L304.777,122.871Z" style="fill:rgb(255,0,255);fill-rule:nonzero;"/>
        </g>
        <g transform="matrix(0.975269,0,0,1,11.7462,-5.72502)">
            <path d="M215.455,121.803L187.284,298.829C184.746,315.072 181.129,328.968 176.434,340.515C171.738,352.063 165.584,361.517 157.97,368.878C150.356,376.238 141.155,381.631 130.369,385.057C119.582,388.484 106.702,390.197 91.728,390.197C84.368,390.197 76.627,389.309 68.505,387.532C60.384,385.755 53.785,383.598 48.709,381.06L56.709,316.999C60.77,318.776 66.13,324.84 71.714,325.982C77.297,327.124 83.733,328.904 88.302,328.904C98.707,328.904 106.448,326.556 111.524,321.861C116.6,317.166 120.153,308.346 122.184,295.402L149.975,121.803L215.455,121.803ZM315.58,121.803C315.58,121.803 382.01,281.403 384.294,287.748L386.079,275.906C386.586,270.068 406.948,121.803 406.948,121.803L462.776,117.777L422.176,381.441L372.911,378.928L330.196,262.24C323.089,245.743 305.286,219.652 300.352,220.785L299.209,220.785C298.702,226.369 297.94,233.666 296.925,242.675C295.91,251.685 275.606,381.441 275.606,381.441L219.262,381.441C219.262,381.441 239.651,278.213 245.473,237.276C251.295,196.34 260,121.167 260,121.167L315.58,121.803Z" style="fill:rgb(0,255,255);fill-rule:nonzero;"/>
        </g>
        <g transform="matrix(0.975269,0,0,1,15.6472,-0.725022)">
            <path d="M215.455,121.803L187.284,298.829C184.746,315.072 181.129,328.968 176.434,340.515C171.738,352.063 165.584,361.517 157.97,368.878C150.356,376.238 141.155,381.631 130.369,385.057C119.582,388.484 106.702,390.197 91.728,390.197C84.368,390.197 76.627,389.309 68.505,387.532C60.384,385.755 53.785,383.598 48.709,381.06L58.607,322.813C62.668,324.589 67.49,326.049 73.074,327.191C78.657,328.333 83.733,328.904 88.302,328.904C98.707,328.904 106.448,326.556 111.524,321.861C116.6,317.166 120.153,308.346 122.184,295.402L149.975,121.803L215.455,121.803ZM315.58,121.803C315.58,121.803 379.537,272.687 381.821,279.032L382.964,279.032C383.471,273.194 406.948,121.803 406.948,121.803L463.291,121.803L422.176,381.441L367.355,381.441L329.665,293.499C322.559,277.002 302.382,226.876 300.352,220.785L299.209,220.785C298.702,226.369 297.94,233.666 296.925,242.675C295.91,251.685 275.606,381.441 275.606,381.441L219.262,381.441L260.378,121.803L315.58,121.803Z" style="fill-rule:nonzero;"/>
        </g>
    </g>
</svg>
