<?xml version="1.0" encoding="UTF-8" standalone="no"?>
<!DOCTYPE svg PUBLIC "-//W3C//DTD SVG 1.1//EN" "http://www.w3.org/Graphics/SVG/1.1/DTD/svg11.dtd">
<svg width="100%" height="100%" viewBox="0 0 512 512" version="1.1" xmlns="http://www.w3.org/2000/svg" xmlns:xlink="http://www.w3.org/1999/xlink" xml:space="preserve" xmlns:serif="http://www.serif.com/" style="fill-rule:evenodd;clip-rule:evenodd;stroke-linejoin:round;stroke-miterlimit:2;">
    <g transform="matrix(1.81267,0,0,1.81267,15.7941,-17.5285)">
        <path d="M176.574,144.754C176.574,144.754 173.487,125.056 171.116,118.588C168.745,112.119 149.701,127.031 148.152,137.712C146.602,148.393 176.574,144.754 176.574,144.754Z" style="fill:rgb(46,79,146);"/>
    </g>
    <g transform="matrix(1.81267,0,0,1.81267,15.7941,-17.5285)">
        <path d="M66.54,111.972C66.54,111.972 34.518,129.61 58.521,198.068C82.523,266.526 184.17,284.452 208.229,252.698C232.287,220.945 66.54,111.972 66.54,111.972Z" style="fill:rgb(187,207,235);"/>
    </g>
    <g transform="matrix(1.81267,0,0,1.81267,15.7941,-17.5285)">
        <path d="M97.604,72.471C97.604,72.471 74.306,110.317 118.384,126.255C162.462,142.192 199.798,128.361 218.252,159.401C236.706,190.441 238.392,235.464 218.579,248.688C198.765,261.912 111.292,256.065 76.216,205.494C41.141,154.923 43.693,98.654 88.385,69.897C88.385,69.897 93.122,67.399 95.95,68.375C98.778,69.352 98.114,72.018 97.604,72.471Z" style="fill:rgb(74,108,177);"/>
    </g>
    <g transform="matrix(1.81267,0,0,1.81267,15.7941,-17.5285)">
        <path d="M128.948,129.576C168.382,140.244 201.292,130.874 218.252,159.401C236.706,190.441 238.392,235.464 218.579,248.688C207.301,256.215 174.103,257.559 141.125,247.997C164.387,249.452 166.292,219.399 168.375,183.966C170.46,148.521 128.949,129.579 128.949,129.579L128.948,129.576Z" style="fill:rgb(97,129,192);"/>
    </g>
    <g transform="matrix(1.81267,0,0,1.81267,15.7941,-17.5285)">
        <path d="M97.604,72.471C97.604,72.471 78.832,102.979 106.901,120.746L106.896,120.753C106.896,120.753 74.519,102.615 92.061,68.491C93.379,68.151 94.817,67.984 95.95,68.375C98.778,69.352 98.114,72.018 97.604,72.471Z" style="fill:rgb(46,73,139);"/>
    </g>
    <g transform="matrix(1.81267,0,0,1.81267,15.7941,-17.5285)">
        <path d="M96.76,73.992C96.76,73.992 99.03,71.022 104.503,71.998C109.977,72.973 126.307,89.662 147.725,73.006C147.725,73.006 149.47,71.275 146.797,70.73C144.125,70.185 136.187,72.082 124.438,62.453C112.69,52.822 103.616,58.419 103.616,58.419C103.616,58.419 103.731,52.389 97.858,48.757C91.987,45.124 81.663,44.901 79.846,40.495C79.846,40.495 78.007,38.937 77.982,41.786C77.959,44.634 77.424,56.147 83.131,60.928C88.838,65.71 88.934,69.39 86.126,71.398L96.76,73.992Z" style="fill:rgb(74,108,177);"/>
    </g>
    <g transform="matrix(1.81267,0,0,1.81267,15.7941,-17.5285)">
        <path d="M96.76,73.992C96.76,73.992 99.03,71.022 104.503,71.998C109.904,72.96 125.875,89.218 146.875,73.65C126.558,82.56 115.858,67.595 105.955,64.99C96.051,62.383 92.061,68.491 92.061,68.491C91.378,69.82 90.778,71.122 90.242,72.402L96.76,73.992Z" style="fill:rgb(46,73,139);"/>
    </g>
    <g transform="matrix(1.81267,0,0,1.81267,15.7941,-17.5285)">
        <path d="M83.204,202.707C83.204,202.707 47.795,193.756 33.562,198.372C19.328,202.99 55.928,249.835 95.986,222.64L83.204,202.707Z" style="fill:rgb(74,108,177);"/>
    </g>
    <g transform="matrix(1.81267,0,0,1.81267,15.7941,-17.5285)">
        <path d="M143.901,200.937C144.151,202.019 143.901,202.681 143.195,203.112C142.49,203.543 132.562,201.811 126.026,206.339C126.026,206.339 125.355,206.628 124.965,206.248C124.593,205.886 126.261,197.184 138.837,196.125C141.477,195.903 143.33,198.464 143.901,200.937Z" style="fill:rgb(46,79,146);"/>
    </g>
    <g transform="matrix(1.81267,0,0,1.81267,15.7941,-17.5285)">
        <path d="M135.734,235.742C139.25,235.742 142.117,231.076 142.117,225.356C142.117,219.636 139.25,214.97 135.734,214.97C132.219,214.97 129.352,219.636 129.352,225.356C129.352,231.076 132.219,235.742 135.734,235.742Z" style="fill:rgb(17,28,61);"/>
    </g>
    <g transform="matrix(1.81267,0,0,1.81267,15.7941,-17.5285)">
        <path d="M139.216,224.544C141.325,224.544 143.045,222.824 143.045,220.715C143.045,218.605 141.325,216.885 139.216,216.885C137.107,216.885 135.387,218.605 135.387,220.715C135.387,222.824 137.107,224.544 139.216,224.544Z" style="fill:white;"/>
    </g>
    <g transform="matrix(1.81267,0,0,1.81267,15.7941,-17.5285)">
        <path d="M158.838,37.591C161.292,37.827 163.704,41.844 164.382,47.021C165.062,52.198 163.767,56.702 161.458,57.562C159.004,57.327 156.592,53.309 155.913,48.132C155.234,42.956 156.528,38.451 158.838,37.591Z" style="fill:rgb(160,209,217);"/>
    </g>
    <g transform="matrix(1.81267,0,0,1.81267,15.7941,-17.5285)">
        <path d="M189.854,53.197C195.167,53.197 199.501,48.863 199.501,43.55C199.501,38.237 195.167,33.904 189.854,33.904C184.542,33.904 180.208,38.237 180.208,43.55C180.208,48.863 184.542,53.197 189.854,53.197Z" style="fill:rgb(193,225,226);"/>
    </g>
    <g transform="matrix(1.81267,0,0,1.81267,15.7941,-17.5285)">
        <path d="M182.008,43.653C182.008,47.624 192.521,35.098 187.92,35.932C184.602,36.535 182.008,40.395 182.008,43.653Z" style="fill:white;"/>
    </g>
    <g transform="matrix(1.81267,0,0,1.81267,15.7941,-17.5285)">
        <path d="M220.455,78.697C228.247,78.697 234.602,72.342 234.602,64.55C234.602,56.758 228.247,50.403 220.455,50.403C212.663,50.403 206.308,56.758 206.308,64.55C206.308,72.342 212.663,78.697 220.455,78.697Z" style="fill:rgb(193,225,226);"/>
    </g>
    <g transform="matrix(1.81267,0,0,1.81267,15.7941,-17.5285)">
        <path d="M208.948,64.702C208.948,70.525 224.366,52.156 217.619,53.378C212.751,54.261 208.948,59.923 208.948,64.702Z" style="fill:white;"/>
    </g>
    <g transform="matrix(1.81267,0,0,1.81267,15.7941,-17.5285)">
        <path d="M202.304,104.496C205.717,104.496 208.5,101.713 208.5,98.3C208.5,94.887 205.717,92.103 202.304,92.103C198.891,92.103 196.108,94.887 196.108,98.3C196.108,101.713 198.891,104.496 202.304,104.496Z" style="fill:rgb(193,225,226);"/>
    </g>
    <g transform="matrix(1.81267,0,0,1.81267,15.7941,-17.5285)">
        <path d="M197.264,98.367C197.264,100.917 204.018,92.871 201.062,93.407C198.93,93.793 197.264,96.273 197.264,98.367Z" style="fill:white;"/>
    </g>
</svg>
